<mxfile host="app.diagrams.net" modified="2024-06-19T10:26:14.321Z" agent="Mozilla/5.0 (Macintosh; Intel Mac OS X 10_15_7) AppleWebKit/605.1.15 (KHTML, like Gecko) Version/17.3.1 Safari/605.1.15" version="24.5.5" etag="fABfuZo1e9IwlR_zpaDS" type="github">
  <diagram name="Страница — 1" id="-WtNP0GpwzEwRjwSGtAU">
    <mxGraphModel>
      <root>
        <mxCell id="0" />
        <mxCell id="1" parent="0" />
      </root>
    </mxGraphModel>
  </diagram>
</mxfile>
